# xmcd CD database file generated by Grip 3.1.4
# 
# Track frame offsets:
#       150
#       14250
#       30000
#       40462
#       50925
#       70987
#       82537
#       97650
#       108262
#       125212
#       135300
#       153375
#       167175
#       180825
#       193800
#       210337
#       220650
# 
# Disc length: 3187 seconds
# 
# Revision: 4
# Processed by: cddbd v1.5.1PL0 Copyright (c) Steve Scherf et al.
# Submitted via: Grip 3.1.4
# 
DISCID=d50c7111
DTITLE=Bob Brozman - A Truckload of Blues
DYEAR=1992
DGENRE=Blues
TTITLE0=We Gonna Move
TTITLE1=Worryin' The Blues Away
TTITLE2=Let's Get It. Stomp
TTITLE3=Scene Of The Crime
TTITLE4=Old Dog Blues
TTITLE5=Never Hit The Same Place Twice
TTITLE6=I Can't Hardly Get Along
TTITLE7=Stack O Lee Aloha
TTITLE8=Get Your Ashes Hauled
TTITLE9=You Set The Market
TTITLE10=One Of Us Was Wrong
TTITLE11=Backwards Blues
TTITLE12=Yearning And Blue
TTITLE13=Don't Laugh At Me
TTITLE14=Kitchen Man
TTITLE15=Just As Well To Let Her Go
TTITLE16=Come On In My Kitchen
EXTD=
EXTT0=
EXTT1=
EXTT2=
EXTT3=
EXTT4=
EXTT5=
EXTT6=
EXTT7=
EXTT8=
EXTT9=
EXTT10=
EXTT11=
EXTT12=
EXTT13=
EXTT14=
EXTT15=
EXTT16=
PLAYORDER=
